<svg xmlns="http://www.w3.org/2000/svg" width="1200" height="630" viewBox="0 0 1200 630" role="img" aria-labelledby="title desc">
  <title id="title">Eye2.ai</title>
  <desc id="desc">Logo de Eye2.ai sobre fondo neutro.</desc>
  <defs>
    <linearGradient id="bg" x1="0" y1="0" x2="1" y2="1">
      <stop offset="0%" stop-color="#f7f9fc"/>
      <stop offset="100%" stop-color="#eef3f8"/>
    </linearGradient>
    <filter id="shadow" x="-20%" y="-20%" width="140%" height="140%">
      <feDropShadow dx="0" dy="18" stdDeviation="24" flood-color="#b9c7d8" flood-opacity="0.28"/>
    </filter>
  </defs>
  <rect width="1200" height="630" fill="url(#bg)"/>
  <circle cx="190" cy="118" r="110" fill="#dce8f4" opacity="0.55"/>
  <circle cx="1040" cy="520" r="145" fill="#d8e6f5" opacity="0.55"/>
  <rect x="120" y="120" width="960" height="390" rx="32" fill="#ffffff" filter="url(#shadow)"/>
  <g transform="translate(220 245) scale(5.507)">
    <path d="M133.011 19.9976V0H137.486V19.9976H133.011Z" fill="#37495B"/>
    <path d="M130.777 19.998H125.91L124.008 15.7744H112.624L110.723 19.998H105.856L114.863 0H121.771L130.777 19.998ZM118.281 4.375C118.169 4.375 118.06 4.40881 117.967 4.47168C117.875 4.53454 117.804 4.62368 117.763 4.72754L117.484 5.39844C117.017 6.53425 116.132 7.4478 115.011 7.95117L114.224 8.30176C114.123 8.34819 114.037 8.42213 113.977 8.51562C113.917 8.6093 113.885 8.71882 113.885 8.83008C113.885 8.94124 113.917 9.04994 113.977 9.14355C114.037 9.23723 114.123 9.3119 114.224 9.3584L115.057 9.73047C116.15 10.2199 117.02 11.1013 117.496 12.2002L117.766 12.8213C117.808 12.9225 117.88 13.0095 117.971 13.0703C118.062 13.1309 118.169 13.163 118.279 13.1631C118.388 13.1631 118.496 13.1311 118.587 13.0703C118.679 13.0095 118.75 12.9225 118.792 12.8213L119.063 12.2002C119.538 11.101 120.407 10.2195 121.5 9.72949L122.335 9.3584C122.436 9.31177 122.522 9.23711 122.582 9.14355C122.641 9.05002 122.673 8.94107 122.673 8.83008C122.673 8.71927 122.641 8.61097 122.582 8.51758C122.522 8.42402 122.436 8.34936 122.335 8.30273L121.547 7.95117C120.427 7.44726 119.542 6.53268 119.076 5.39648L118.797 4.72754C118.757 4.62367 118.685 4.53455 118.593 4.47168C118.501 4.4089 118.392 4.37509 118.281 4.375Z" fill="#37495B"/>
    <path d="M99.3599 19.9993V15.9997H103.835V19.9993H99.3599Z" fill="#37495B"/>
    <path d="M74.5126 20V14.0706C74.5126 12.2061 75.0347 10.761 76.0789 9.73548C77.123 8.70996 78.6427 8.1972 80.6378 8.1972H89.8395C91.6108 8.1972 92.4965 7.44205 92.4965 5.93173C92.4965 4.42142 91.6108 3.66627 89.8395 3.66627H74.9601V0.0303345H90.7065C92.6457 0.0303345 94.1466 0.552417 95.2095 1.59658C96.2909 2.64075 96.8316 4.0858 96.8316 5.93173C96.8316 7.77767 96.2909 9.22272 95.2095 10.2669C94.1466 11.3111 92.6457 11.8331 90.7065 11.8331H81.2531C80.4513 11.8331 79.8453 12.0382 79.4351 12.4484C79.0435 12.84 78.8478 13.3994 78.8478 14.1266V16.392H96.3002V20H74.5126Z" fill="#37495B"/>
    <path d="M50 19.9976V0H71.9275V3.63593H54.475V8.05499H70.3053V11.6909H54.475V16.3617H71.9275V19.9976H50Z" fill="#37495B"/>
    <path d="M33.6341 19.9976V12.8656L23.0339 0H28.5718L35.8716 9.06186L43.1435 0H48.6813L38.1371 12.8376V19.9976H33.6341Z" fill="#37495B"/>
    <path d="M0 19.9976V0H21.9275V3.63593H4.475V8.05499H20.3053V11.6909H4.475V16.3617H21.9275V19.9976H0Z" fill="#37495B"/>
  </g>
  <text x="600" y="405" text-anchor="middle" font-family="Arial, sans-serif" font-size="34" fill="#5f7285">
    Compara respuestas de varios modelos y destaca el consenso
  </text>
</svg>
